<mxfile host="app.diagrams.net" agent="Mozilla/5.0 (Windows NT 10.0; Win64; x64) AppleWebKit/537.36 (KHTML, like Gecko) Chrome/131.0.0.0 Safari/537.36 Edg/131.0.0.0" version="24.9.0">
  <diagram name="第 1 页" id="p1XSrHGMPe_0kl-DALOA">
    <mxGraphModel dx="1042" dy="565" grid="1" gridSize="10" guides="1" tooltips="1" connect="1" arrows="1" fold="1" page="1" pageScale="1" pageWidth="827" pageHeight="1169" math="0" shadow="0">
      <root>
        <mxCell id="0" />
        <mxCell id="1" parent="0" />
        <mxCell id="If0LdW7ZxM9_iG3VujUk-2" value="管理系统监控配置" style="ellipse;whiteSpace=wrap;html=1;" vertex="1" parent="1">
          <mxGeometry x="414" y="180" width="140" height="70" as="geometry" />
        </mxCell>
        <mxCell id="If0LdW7ZxM9_iG3VujUk-7" value="获取系统监控概览" style="ellipse;whiteSpace=wrap;html=1;" vertex="1" parent="1">
          <mxGeometry x="414" y="280" width="140" height="70" as="geometry" />
        </mxCell>
        <mxCell id="If0LdW7ZxM9_iG3VujUk-9" value="" style="endArrow=classic;html=1;rounded=0;entryX=0;entryY=0.5;entryDx=0;entryDy=0;" edge="1" parent="1" target="If0LdW7ZxM9_iG3VujUk-7">
          <mxGeometry width="50" height="50" relative="1" as="geometry">
            <mxPoint x="290" y="270" as="sourcePoint" />
            <mxPoint x="400" y="170" as="targetPoint" />
          </mxGeometry>
        </mxCell>
        <mxCell id="If0LdW7ZxM9_iG3VujUk-11" value="系统管理员" style="shape=umlActor;verticalLabelPosition=bottom;verticalAlign=top;html=1;" vertex="1" parent="1">
          <mxGeometry x="220" y="230" width="70" height="80" as="geometry" />
        </mxCell>
        <mxCell id="If0LdW7ZxM9_iG3VujUk-15" value="" style="endArrow=classic;html=1;rounded=0;entryX=0;entryY=0.5;entryDx=0;entryDy=0;" edge="1" parent="1" target="If0LdW7ZxM9_iG3VujUk-2">
          <mxGeometry width="50" height="50" relative="1" as="geometry">
            <mxPoint x="290" y="270" as="sourcePoint" />
            <mxPoint x="340" y="220" as="targetPoint" />
          </mxGeometry>
        </mxCell>
      </root>
    </mxGraphModel>
  </diagram>
</mxfile>
